<?xml version="1.0" encoding="UTF-8" standalone="no"?>
<!-- Created with Inkscape (http://www.inkscape.org/) -->

<svg
   width="401.05139"
   height="209.93544"
   viewBox="0 0 106.11151 55.54542"
   version="1.1"
   id="svg1"
   xml:space="preserve"
   xmlns="http://www.w3.org/2000/svg"
   xmlns:svg="http://www.w3.org/2000/svg"><defs
     id="defs1" /><g
     id="layer1"
     transform="translate(-14.677579,-39.916003)"><g
       id="g29"
       style="display:inline"
       transform="translate(-39.884657,-14.428035)"><path
         style="display:inline;fill:none;fill-opacity:1;stroke:#FFC360;stroke-width:3;stroke-linecap:round;stroke-linejoin:round;stroke-opacity:1"
         d="M 66.685555,27.593453 30.267819,55.664432 c -0.66073,0.509294 -1.047778,1.296317 -1.047778,2.13055 v 21.337283 c 0,0.833993 0.387897,1.620545 1.049561,2.128231 l 36.41417,27.940094 c 0.619087,0.47502 1.480035,0.47502 2.099122,0 L 105.19706,81.260496 c 0.66167,-0.507686 1.04957,-1.294238 1.04957,-2.128231 V 57.794982 c 0,-0.834233 -0.38705,-1.621256 -1.04778,-2.13055 L 68.781111,27.593453 c -0.61745,-0.475933 -1.478106,-0.475933 -2.095556,0 z m 83.236245,0 36.41773,28.070979 c 0.66073,0.509294 1.04778,1.296317 1.04778,2.13055 v 21.337283 c 0,0.833993 -0.3879,1.620545 -1.04956,2.128231 l -36.41417,27.940094 c -0.61909,0.47502 -1.48003,0.47502 -2.09912,0 L 111.41029,81.260496 c -0.66167,-0.507686 -1.04956,-1.294238 -1.04956,-2.128231 V 57.794982 c 0,-0.834233 0.38704,-1.621256 1.04777,-2.13055 l 36.41774,-28.070979 c 0.61745,-0.475933 1.47811,-0.475933 2.09556,0 z"
         id="path26"
         transform="matrix(0.66666668,0,0,0.66666668,35.415541,36.518952)" /><g
         id="g28"
         transform="matrix(0.66666668,0,0,0.66666668,35.415541,36.518952)"><path
           style="fill:none;fill-opacity:1;stroke:#FFC360;stroke-width:3;stroke-linecap:round;stroke-linejoin:round;stroke-opacity:1"
           d="M 67.733333,27.302839 44.030198,83.056967 29.566227,80.450392 M 67.733333,27.302839 91.436468,83.056967 105.90044,80.450392 m 42.97358,-53.147553 23.70313,55.754128 14.46397,-2.606575 m -38.1671,-53.147553 -23.70314,55.754128 -14.46397,-2.606575"
           id="path27" /><path
           style="fill:none;fill-opacity:1;stroke:#FFC360;stroke-width:3;stroke-linecap:round;stroke-linejoin:round;stroke-opacity:1"
           d="m 44.030198,83.056967 23.703134,13.409197 10e-7,12.950086 m 23.703135,-26.359283 -23.703134,13.409197 -10e-7,12.950086 m 104.843817,-26.359283 -23.70313,13.409197 0,12.950086 m -23.70314,-26.359283 23.70314,13.409197 0,12.950086"
           id="path28" /></g></g></g></svg>
